<svg xmlns="http://www.w3.org/2000/svg" width="25.305" height="32.053" viewBox="0 0 25.305 32.053" fill="#7F776C">
  <path d="M 11.047 15.712 C 11.172 15.642 11.22 15.513 11.289 15.405 C 12.608 13.389 13.954 11.391 15.328 9.409 C 16.431 7.818 17.546 6.239 18.756 4.715 C 19.684 3.547 20.673 2.426 21.723 1.353 C 22.056 1.003 22.418 0.682 22.808 0.387 C 22.999 0.234 23.213 0.117 23.449 0.035 C 23.78 -0.064 24.023 0.048 24.122 0.36 C 24.166 0.484 24.188 0.612 24.188 0.742 C 24.171 1.248 24.317 1.717 24.514 2.18 C 24.6 2.385 24.682 2.592 24.768 2.798 C 25.019 3.379 25.182 3.982 25.257 4.605 C 25.333 5.229 25.319 5.85 25.215 6.471 C 24.849 8.634 24.111 10.677 22.881 12.548 C 22.485 13.165 22.014 13.725 21.468 14.23 C 20.921 14.735 20.316 15.168 19.654 15.531 C 18.71 16.044 17.692 16.365 16.63 16.572 C 15.899 16.714 15.166 16.852 14.424 16.937 C 13.843 17.008 13.263 17.015 12.681 16.957 C 12.087 16.901 11.568 16.687 11.123 16.312 C 11.016 16.337 10.98 16.412 10.935 16.474 C 9.544 18.547 8.338 20.7 7.471 23.02 C 7.088 24.052 6.814 25.111 6.652 26.194 C 6.441 27.596 6.29 29.005 6.15 30.414 C 6.11 30.815 6.052 31.215 5.994 31.613 C 5.976 31.729 5.942 31.841 5.892 31.948 C 5.86 32.014 5.806 32.049 5.729 32.053 C 5.653 32.056 5.595 32.027 5.556 31.966 C 5.493 31.864 5.449 31.755 5.422 31.64 C 5.336 31.259 5.249 30.878 5.182 30.494 C 4.988 29.392 4.825 28.286 4.695 27.175 C 4.585 26.246 4.504 25.313 4.417 24.381 C 4.299 23.099 4.251 21.813 4.226 20.526 C 4.208 19.655 4.14 18.788 3.923 17.936 C 3.811 17.452 3.647 16.984 3.432 16.532 C 3.345 16.356 3.247 16.183 3.143 16.014 C 3.064 15.875 2.959 15.757 2.829 15.658 C 2.698 15.559 2.552 15.488 2.391 15.445 C 2.044 15.351 1.712 15.225 1.375 15.108 C 1.127 15.021 0.893 14.91 0.671 14.777 C 0.494 14.673 0.338 14.544 0.206 14.391 C 0.113 14.283 0.05 14.161 0.02 14.025 C -0.011 13.889 -0.006 13.753 0.033 13.619 C 0.133 13.212 0.483 12.99 0.93 13.05 C 1.028 13.058 1.122 13.077 1.214 13.106 C 2.016 13.397 2.596 13.907 2.917 14.662 C 2.989 14.807 3.018 14.959 3.003 15.118 C 2.968 15.322 3.062 15.457 3.196 15.606 C 3.49 15.924 3.674 16.304 3.836 16.691 C 4.066 17.251 4.234 17.826 4.337 18.417 C 4.352 18.571 4.396 18.718 4.468 18.857 C 4.505 18.541 4.54 18.254 4.571 17.962 C 4.631 17.381 4.693 16.799 4.744 16.216 C 4.781 15.811 4.814 15.413 4.986 15.037 C 5.035 14.929 4.966 14.865 4.899 14.8 C 4.6 14.525 4.427 14.193 4.38 13.802 C 4.341 13.516 4.358 13.233 4.432 12.953 C 4.505 12.673 4.629 12.415 4.804 12.178 C 4.883 12.068 4.985 11.981 5.107 11.915 C 5.171 11.875 5.242 11.849 5.317 11.833 C 5.393 11.819 5.468 11.817 5.545 11.828 C 5.621 11.84 5.692 11.863 5.759 11.9 C 5.826 11.935 5.884 11.982 5.932 12.038 C 6.071 12.19 6.151 12.368 6.168 12.569 C 6.199 12.829 6.19 13.088 6.144 13.346 C 6.07 13.758 5.941 14.154 5.753 14.534 C 5.676 14.717 5.56 14.877 5.407 15.012 C 5.26 15.128 5.206 15.285 5.162 15.451 C 5.103 15.719 5.065 15.99 5.048 16.264 C 4.962 17.038 4.89 17.816 4.813 18.591 C 4.808 18.64 4.791 18.693 4.838 18.738 C 4.946 18.738 4.954 18.636 4.991 18.575 C 5.195 18.264 5.383 17.947 5.665 17.69 C 5.723 17.631 5.749 17.561 5.742 17.481 C 5.77 16.69 6.165 16.073 6.785 15.563 C 6.817 15.539 6.85 15.515 6.884 15.494 C 7.195 15.304 7.517 15.23 7.859 15.414 C 7.946 15.456 8.024 15.51 8.094 15.575 C 8.164 15.64 8.221 15.713 8.266 15.795 C 8.311 15.877 8.342 15.963 8.36 16.053 C 8.377 16.144 8.379 16.235 8.367 16.326 C 8.313 16.869 7.986 17.235 7.447 17.427 C 7.185 17.517 6.915 17.571 6.637 17.59 C 6.44 17.601 6.255 17.652 6.085 17.746 C 5.914 17.839 5.774 17.964 5.666 18.119 C 5.511 18.333 5.37 18.557 5.221 18.777 C 5.139 18.897 5.063 19.02 4.977 19.139 C 4.822 19.346 4.804 19.351 4.509 19.382 C 4.372 21.791 5.22 30.271 5.721 31.347 C 5.745 31.185 5.761 31.066 5.778 30.948 C 5.795 30.829 5.816 30.69 5.828 30.562 C 5.986 28.918 6.157 27.277 6.435 25.645 C 6.602 24.695 6.86 23.767 7.209 22.861 C 7.883 21.11 8.72 19.431 9.721 17.823 C 10.053 17.284 10.406 16.754 10.755 16.225 C 10.828 16.112 10.85 16.026 10.766 15.906 C 10.32 15.27 10.16 14.548 10.073 13.806 C 10.01 13.212 9.988 12.616 10.006 12.019 C 10.029 10.665 10.051 9.313 10.074 7.964 C 10.085 7.221 10.169 6.486 10.326 5.759 C 10.452 5.145 10.68 4.569 11.012 4.027 C 11.342 3.487 11.758 3.011 12.259 2.6 C 12.946 2.029 13.698 1.548 14.516 1.156 C 15.333 0.763 16.19 0.474 17.085 0.285 C 18.216 0.039 19.36 0 20.511 0.07 C 20.884 0.102 21.252 0.154 21.618 0.225 C 21.808 0.256 21.891 0.341 21.859 0.435 C 21.831 0.516 21.746 0.545 21.569 0.508 C 21.122 0.417 20.67 0.361 20.213 0.339 C 17.501 0.188 15.075 0.899 12.922 2.447 C 11.608 3.392 10.809 4.618 10.551 6.16 C 10.421 7.01 10.354 7.864 10.35 8.723 C 10.323 9.983 10.325 11.241 10.314 12.505 C 10.298 13.157 10.356 13.803 10.487 14.444 C 10.562 14.83 10.698 15.196 10.893 15.543 C 10.928 15.608 10.953 15.682 11.047 15.712 Z M 24.991 5.468 C 25.008 4.746 24.892 4.044 24.645 3.361 C 24.503 2.968 24.343 2.58 24.186 2.191 C 23.999 1.727 23.859 1.255 23.874 0.751 C 23.876 0.673 23.869 0.595 23.852 0.518 C 23.802 0.296 23.679 0.238 23.463 0.33 C 23.262 0.42 23.078 0.535 22.911 0.673 C 22.541 0.968 22.195 1.285 21.871 1.623 C 20.343 3.204 18.94 4.877 17.662 6.641 C 15.63 9.43 13.707 12.285 11.812 15.156 C 11.652 15.4 11.491 15.643 11.335 15.888 C 11.263 15.999 11.27 16.038 11.367 16.121 C 11.734 16.446 12.183 16.592 12.671 16.669 C 13.294 16.768 13.917 16.715 14.534 16.641 C 15.37 16.533 16.198 16.386 17.017 16.199 C 19.01 15.758 20.666 14.804 21.949 13.297 C 22.517 12.621 22.993 11.893 23.378 11.111 C 23.955 9.942 24.401 8.73 24.714 7.475 C 24.886 6.816 24.98 6.146 24.993 5.468 L 24.991 5.468 Z M 2.655 15.224 C 2.715 15.019 2.69 14.825 2.581 14.639 C 2.446 14.366 2.264 14.126 2.035 13.916 C 1.806 13.705 1.545 13.541 1.252 13.42 C 1.15 13.377 1.046 13.346 0.938 13.326 C 0.625 13.266 0.401 13.412 0.331 13.708 C 0.306 13.797 0.304 13.887 0.326 13.977 C 0.347 14.067 0.388 14.148 0.449 14.219 C 0.544 14.332 0.655 14.427 0.784 14.505 C 1.353 14.857 1.998 15.031 2.655 15.224 Z M 6.083 17.4 C 6.471 17.333 6.841 17.283 7.203 17.202 C 7.305 17.183 7.404 17.15 7.496 17.105 C 7.588 17.058 7.672 17.001 7.748 16.933 C 7.822 16.864 7.886 16.787 7.936 16.701 C 7.988 16.615 8.025 16.524 8.049 16.428 C 8.097 16.257 8.078 16.093 7.991 15.936 C 7.816 15.611 7.463 15.504 7.124 15.692 C 7.016 15.752 6.918 15.823 6.828 15.905 C 6.475 16.23 6.232 16.616 6.099 17.063 C 6.051 17.174 6.045 17.286 6.083 17.4 Z M 5.283 14.725 C 5.318 14.676 5.342 14.644 5.362 14.613 C 5.69 14.061 5.865 13.469 5.887 12.838 C 5.891 12.694 5.868 12.555 5.819 12.418 C 5.701 12.073 5.386 12.008 5.126 12.269 C 5.057 12.335 4.999 12.407 4.953 12.487 C 4.724 12.873 4.633 13.286 4.677 13.724 C 4.696 13.924 4.758 14.112 4.864 14.287 C 4.969 14.461 5.109 14.607 5.283 14.725 Z" fill="#231F20" fill-rule="nonzero"></path>
</svg>