<svg xmlns="http://www.w3.org/2000/svg" width="37.695" height="51.725" viewBox="0 0 37.695 51.725" fill="#7F776C">
  <path d="M 0.033 51.725 C 1.545 51.695 3.046 51.591 4.523 51.239 C 5.677 50.963 6.808 50.569 7.859 50.006 C 9.492 49.135 10.909 47.884 11.945 46.314 C 12.687 45.191 13.228 43.926 13.558 42.611 C 13.755 41.819 13.864 41.014 13.958 40.204 C 14.233 37.905 14.446 35.6 14.663 33.295 C 14.898 30.836 15.055 28.388 15.138 25.917 C 15.284 21.638 15.282 17.357 15.264 13.079 C 15.256 10.946 15.241 8.815 15.238 6.682 C 15.236 5.645 15.193 4.593 15.267 3.559 C 15.333 2.635 15.599 1.763 16.298 1.147 C 16.888 0.626 17.658 0.356 18.425 0.309 C 19.411 0.249 20.398 0.309 21.384 0.347 C 23.357 0.427 25.335 0.382 27.308 0.371 C 29.006 0.362 30.701 0.382 32.399 0.356 C 33.109 0.344 33.822 0.338 34.529 0.388 C 35.191 0.436 35.83 0.551 36.393 0.936 C 37.018 1.363 37.467 2.051 37.539 2.833 C 37.554 2.981 37.708 2.981 37.694 2.83 C 37.565 1.39 36.5 0.386 35.142 0.175 C 33.817 -0.032 32.451 0.095 31.114 0.095 C 29.149 0.095 27.188 0.095 25.223 0.101 C 24.213 0.104 23.199 0.11 22.188 0.092 C 21.22 0.074 20.252 0 19.282 0 C 18.457 0 17.646 0.038 16.893 0.421 C 16.26 0.744 15.728 1.262 15.428 1.926 C 15.041 2.786 15.047 3.766 15.044 4.696 C 15.041 5.772 15.044 6.845 15.047 7.92 C 15.061 12.234 15.107 16.552 15.058 20.866 C 15.018 24.237 14.972 27.66 14.68 30.984 C 14.477 33.301 14.25 35.615 13.996 37.929 C 13.861 39.147 13.746 40.371 13.538 41.579 C 13.343 42.711 12.993 43.816 12.489 44.839 C 11.716 46.409 10.588 47.757 9.211 48.791 C 7.203 50.3 4.801 51.028 2.376 51.407 C 1.594 51.529 0.809 51.609 0.019 51.633 C -0.01 51.63 -0.006 51.725 0.033 51.725 Z" fill="#231F20" fill-rule="nonzero"></path>
</svg>