<svg xmlns="http://www.w3.org/2000/svg" width="15.903" height="12.553" viewBox="0 0 15.903 12.553" fill="#7F776C">
  <path d="M 6.477 0.035 C 6.484 0.01 6.511 -0.005 6.535 0.002 C 6.56 0.009 6.575 0.037 6.568 0.063 C 6.44 0.515 6.313 0.968 5.977 1.274 C 5.818 1.418 5.614 1.527 5.387 1.606 C 5.136 1.694 4.856 1.743 4.579 1.761 C 4.353 1.776 4.127 1.77 3.907 1.763 C 3.626 1.755 3.352 1.747 3.094 1.785 C 2.861 1.819 2.638 1.891 2.432 2.006 C 2.236 2.114 2.053 2.263 1.887 2.455 C 1.716 2.654 1.563 2.899 1.422 3.196 C 1.281 3.494 1.152 3.845 1.027 4.252 C 0.907 4.647 0.792 5.095 0.688 5.561 C 0.577 6.058 0.477 6.576 0.395 7.077 C 0.317 7.552 0.254 8.012 0.207 8.448 C 0.158 8.901 0.126 9.327 0.109 9.717 C 0.092 10.103 0.091 10.455 0.106 10.762 L 0.106 10.763 C 0.121 11.062 0.151 11.319 0.197 11.523 C 0.242 11.726 0.304 11.875 0.379 11.979 C 0.452 12.078 0.539 12.136 0.64 12.157 C 0.729 12.177 0.835 12.17 0.983 12.159 C 1.188 12.145 1.472 12.125 1.912 12.161 C 2.141 12.181 2.412 12.215 2.717 12.254 C 3.427 12.344 4.321 12.457 5.291 12.454 C 6.361 12.45 7.53 12.304 8.491 12.184 C 8.772 12.149 9.035 12.116 9.28 12.089 C 9.638 12.049 9.936 12.024 10.171 12.005 C 10.468 11.98 10.663 11.963 10.737 11.942 C 10.597 11.853 10.035 11.684 9.387 11.49 L 9.14 11.416 C 8.548 11.238 7.946 11.053 7.448 10.899 L 6.903 10.73 C 6.624 10.645 6.427 10.585 6.26 10.538 C 6.091 10.49 5.95 10.454 5.783 10.415 L 5.679 10.39 C 5.36 10.318 4.975 10.23 4.645 10.06 C 4.5 9.986 4.366 9.896 4.239 9.812 C 4.053 9.687 3.885 9.574 3.727 9.544 C 3.599 9.519 3.474 9.548 3.352 9.609 C 3.225 9.673 3.101 9.771 2.982 9.882 C 2.864 9.993 2.748 10.119 2.64 10.236 C 2.527 10.359 2.423 10.472 2.328 10.555 C 2.136 10.723 1.989 10.763 1.915 10.784 L 1.913 10.784 C 1.737 10.833 1.737 10.832 1.913 10.504 C 1.974 10.39 2.065 10.219 2.175 10.028 C 2.284 9.839 2.411 9.634 2.541 9.452 C 2.632 9.325 2.725 9.209 2.816 9.111 C 2.77 9.13 2.724 9.154 2.68 9.183 C 2.457 9.324 2.249 9.592 2.068 9.826 C 2.006 9.907 1.946 9.984 1.891 10.049 C 1.778 10.184 1.677 10.278 1.586 10.343 C 1.49 10.409 1.403 10.443 1.321 10.454 C 1.266 10.461 1.213 10.458 1.167 10.447 C 1.126 10.437 1.089 10.419 1.061 10.398 C 1.029 10.373 1.008 10.34 1.004 10.304 L 1.003 10.298 C 1.003 10.287 1.003 10.274 1.006 10.263 C 1.018 10.211 1.063 10.165 1.133 10.095 C 1.205 10.023 1.305 9.922 1.418 9.763 C 1.506 9.641 1.602 9.483 1.701 9.319 C 1.615 9.393 1.532 9.466 1.457 9.535 C 1.326 9.653 1.215 9.754 1.13 9.81 C 1.07 9.849 1.021 9.868 0.984 9.869 C 0.951 9.869 0.926 9.859 0.908 9.838 C 0.891 9.819 0.882 9.793 0.881 9.761 C 0.88 9.713 0.9 9.645 0.94 9.565 C 0.991 9.465 1.076 9.343 1.182 9.21 L 1.183 9.209 C 1.132 9.229 1.086 9.243 1.049 9.252 C 0.941 9.277 0.882 9.257 0.877 9.188 C 0.873 9.143 0.911 9.075 0.993 8.981 C 1.094 8.866 1.272 8.699 1.446 8.534 C 1.518 8.465 1.59 8.397 1.668 8.322 L 1.718 8.273 C 1.922 8.074 2.077 7.922 2.392 7.829 C 2.536 7.786 2.713 7.757 2.892 7.736 C 3.128 7.71 3.366 7.7 3.533 7.7 C 3.683 7.7 3.778 7.708 3.895 7.746 C 4.01 7.783 4.141 7.85 4.368 7.968 L 4.418 7.995 C 4.872 8.232 5.664 8.647 6.618 8.912 C 7.101 9.047 7.625 9.144 8.178 9.206 C 8.442 9.236 8.712 9.258 8.986 9.273 C 8.736 9.185 8.505 9.033 8.339 8.794 C 8.131 8.496 8.026 8.064 8.042 7.594 C 8.057 7.156 8.178 6.684 8.421 6.259 C 8.785 5.624 9.42 5.099 9.982 4.636 C 10.189 4.464 10.387 4.301 10.554 4.147 C 10.85 3.872 11.059 3.617 11.184 3.402 C 11.314 3.18 11.351 3.005 11.3 2.902 C 11.237 2.775 11.023 2.741 10.78 2.703 C 10.642 2.682 10.495 2.658 10.356 2.615 C 10.154 2.552 9.972 2.447 9.813 2.301 C 9.655 2.155 9.518 1.969 9.405 1.743 C 9.377 1.69 9.352 1.635 9.328 1.579 C 9.282 1.511 9.242 1.443 9.207 1.377 C 9.061 1.094 9.019 0.827 9.019 0.726 C 9.014 0.713 9.015 0.697 9.023 0.685 C 9.041 0.655 9.064 0.65 9.092 0.668 L 9.093 0.668 C 9.12 0.685 9.147 0.772 9.188 0.902 C 9.24 1.067 9.316 1.307 9.412 1.531 C 9.49 1.645 9.587 1.756 9.706 1.857 C 10.192 2.268 11.053 2.506 11.697 2.683 L 11.899 2.739 C 12.231 2.832 12.476 2.911 12.686 3.035 C 12.897 3.159 13.07 3.326 13.255 3.595 C 13.437 3.86 13.633 4.224 13.829 4.629 C 14.024 5.031 14.22 5.473 14.406 5.894 C 14.592 6.317 14.768 6.719 14.93 7.111 C 15.093 7.507 15.244 7.897 15.38 8.297 C 15.526 8.725 15.657 9.165 15.75 9.587 C 15.832 9.958 15.886 10.317 15.9 10.647 C 15.915 11.017 15.878 11.35 15.778 11.623 C 15.683 11.88 15.533 12.084 15.317 12.214 C 15.096 12.347 14.808 12.401 14.489 12.413 C 14.174 12.425 13.83 12.395 13.49 12.361 C 12.816 12.293 12.16 12.206 11.505 12.119 L 11.496 12.117 C 11.47 12.114 11.452 12.09 11.455 12.063 C 11.458 12.036 11.482 12.017 11.508 12.021 L 11.517 12.022 C 12.171 12.109 12.825 12.196 13.498 12.264 C 13.835 12.298 14.176 12.326 14.486 12.315 C 14.79 12.304 15.064 12.254 15.27 12.129 C 15.465 12.011 15.602 11.825 15.689 11.588 C 15.785 11.328 15.82 11.008 15.805 10.65 C 15.793 10.328 15.739 9.975 15.658 9.61 C 15.565 9.19 15.436 8.754 15.291 8.33 C 15.155 7.932 15.005 7.544 14.843 7.15 C 14.679 6.753 14.505 6.354 14.321 5.935 C 14.135 5.515 13.939 5.074 13.744 4.673 C 13.55 4.273 13.358 3.913 13.178 3.652 C 13.002 3.396 12.838 3.237 12.639 3.121 C 12.439 3.003 12.2 2.926 11.874 2.835 L 11.673 2.778 C 11.021 2.599 10.148 2.358 9.646 1.934 L 9.597 1.891 C 9.681 2.022 9.774 2.134 9.875 2.228 C 10.025 2.365 10.194 2.463 10.383 2.521 C 10.515 2.563 10.66 2.585 10.794 2.607 C 11.063 2.649 11.3 2.686 11.384 2.858 C 11.45 2.992 11.412 3.201 11.265 3.454 C 11.136 3.676 10.921 3.939 10.617 4.22 C 10.445 4.38 10.248 4.543 10.041 4.714 C 9.486 5.172 8.858 5.691 8.503 6.311 C 8.268 6.721 8.151 7.176 8.137 7.599 C 8.122 8.047 8.22 8.458 8.416 8.738 C 8.578 8.971 8.808 9.113 9.055 9.194 C 9.382 9.301 9.739 9.299 10.009 9.253 C 10.246 9.213 10.415 9.14 10.555 9.036 C 10.696 8.932 10.808 8.797 10.928 8.635 C 10.968 8.582 11.008 8.526 11.048 8.469 C 11.265 8.165 11.513 7.819 11.848 7.606 C 12.023 7.495 12.221 7.42 12.414 7.374 C 12.662 7.314 12.904 7.299 13.082 7.307 C 13.241 7.315 13.354 7.341 13.412 7.373 L 13.415 7.374 C 13.439 7.387 13.457 7.403 13.467 7.42 C 13.477 7.437 13.481 7.453 13.478 7.469 C 13.607 7.492 13.702 7.525 13.765 7.561 C 13.804 7.583 13.832 7.607 13.849 7.632 C 13.872 7.665 13.878 7.699 13.866 7.731 C 13.861 7.746 13.853 7.759 13.842 7.77 C 13.817 7.796 13.772 7.815 13.714 7.831 C 13.894 7.809 14.032 7.792 14.115 7.842 L 14.119 7.844 C 14.143 7.858 14.162 7.879 14.175 7.903 L 14.177 7.906 C 14.192 7.935 14.199 7.969 14.196 8.006 C 14.194 8.039 14.182 8.075 14.162 8.111 C 14.13 8.165 14.076 8.219 13.995 8.265 C 13.906 8.316 13.787 8.355 13.656 8.397 C 13.488 8.452 13.301 8.513 13.147 8.609 C 13.124 8.624 13.102 8.639 13.08 8.655 C 13.144 8.645 13.21 8.637 13.277 8.629 L 13.278 8.629 C 13.328 8.623 13.378 8.617 13.421 8.611 C 13.477 8.604 13.531 8.594 13.582 8.586 C 13.773 8.554 13.928 8.529 13.985 8.599 C 13.995 8.611 14.001 8.624 14.004 8.639 C 14.01 8.664 14.006 8.692 13.991 8.721 C 13.979 8.745 13.958 8.771 13.927 8.797 C 13.83 8.883 13.612 8.991 13.193 9.087 C 12.832 9.17 12.316 9.247 11.733 9.304 C 11.19 9.356 10.589 9.39 9.998 9.394 C 9.369 9.399 8.752 9.371 8.167 9.305 C 7.61 9.242 7.08 9.145 6.593 9.009 C 5.629 8.74 4.832 8.323 4.375 8.083 L 4.324 8.056 C 4.103 7.941 3.974 7.876 3.866 7.841 C 3.761 7.806 3.673 7.799 3.532 7.799 C 3.367 7.799 3.132 7.809 2.901 7.835 C 2.729 7.854 2.557 7.883 2.418 7.924 C 2.125 8.01 1.977 8.155 1.782 8.345 L 1.732 8.395 C 1.671 8.454 1.59 8.53 1.509 8.607 C 1.337 8.77 1.163 8.934 1.063 9.048 C 0.999 9.121 0.969 9.165 0.97 9.181 C 0.971 9.189 0.989 9.166 1.027 9.157 C 1.098 9.141 1.206 9.099 1.328 9.034 C 1.395 8.955 1.468 8.873 1.543 8.792 C 1.684 8.637 1.835 8.481 1.948 8.372 C 2.06 8.265 2.148 8.201 2.183 8.216 C 2.187 8.217 2.19 8.219 2.193 8.222 L 2.197 8.226 C 2.221 8.247 2.219 8.283 2.196 8.327 C 2.184 8.352 2.164 8.385 2.137 8.424 C 2.054 8.543 1.907 8.719 1.749 8.858 L 1.747 8.86 C 1.633 8.96 1.514 9.041 1.404 9.103 L 1.387 9.112 C 1.339 9.168 1.295 9.222 1.254 9.274 C 1.152 9.403 1.071 9.519 1.023 9.612 C 0.99 9.676 0.974 9.728 0.975 9.76 C 0.975 9.766 0.976 9.77 0.976 9.772 L 0.98 9.772 C 1.001 9.772 1.033 9.757 1.077 9.728 C 1.156 9.676 1.264 9.578 1.393 9.462 C 1.528 9.341 1.683 9.202 1.849 9.073 C 1.942 8.921 2.035 8.774 2.122 8.659 C 2.239 8.506 2.347 8.406 2.446 8.343 C 2.549 8.278 2.644 8.252 2.731 8.247 C 2.801 8.243 2.868 8.252 2.915 8.274 C 2.942 8.287 2.964 8.305 2.977 8.328 C 2.993 8.355 2.997 8.385 2.987 8.418 C 2.978 8.448 2.956 8.479 2.919 8.512 C 2.851 8.573 2.726 8.644 2.573 8.729 C 2.404 8.824 2.2 8.938 2.009 9.075 C 1.979 9.097 1.95 9.119 1.92 9.141 L 1.818 9.311 C 1.706 9.498 1.595 9.682 1.494 9.823 C 1.376 9.988 1.272 10.092 1.198 10.166 C 1.141 10.224 1.103 10.262 1.098 10.287 L 1.097 10.294 C 1.098 10.302 1.106 10.311 1.118 10.321 C 1.135 10.334 1.159 10.345 1.188 10.352 C 1.224 10.361 1.265 10.364 1.309 10.357 C 1.377 10.349 1.45 10.32 1.532 10.263 C 1.617 10.203 1.711 10.113 1.82 9.986 C 1.876 9.918 1.933 9.844 1.994 9.766 C 2.18 9.526 2.393 9.25 2.629 9.1 C 2.741 9.029 2.858 8.986 2.967 8.958 C 3.081 8.853 3.186 8.78 3.273 8.75 C 3.364 8.718 3.437 8.731 3.481 8.761 C 3.499 8.773 3.513 8.79 3.522 8.808 C 3.532 8.828 3.535 8.85 3.531 8.872 C 3.524 8.91 3.496 8.947 3.442 8.969 C 3.395 8.989 3.328 8.998 3.246 9.009 C 3.177 9.018 3.097 9.029 3.012 9.049 L 2.994 9.066 C 2.874 9.182 2.743 9.335 2.616 9.512 C 2.488 9.691 2.363 9.894 2.255 10.08 C 2.148 10.266 2.056 10.438 1.995 10.553 C 1.928 10.678 1.855 10.7 1.887 10.691 L 1.889 10.691 C 1.956 10.672 2.091 10.635 2.265 10.482 C 2.356 10.402 2.459 10.291 2.569 10.17 C 2.678 10.053 2.794 9.926 2.917 9.812 C 3.043 9.694 3.173 9.591 3.308 9.523 C 3.448 9.453 3.593 9.42 3.742 9.449 C 3.919 9.484 4.095 9.601 4.289 9.731 C 4.412 9.814 4.543 9.902 4.685 9.974 C 5.006 10.137 5.384 10.224 5.698 10.296 L 5.802 10.32 C 5.969 10.36 6.111 10.397 6.283 10.445 C 6.455 10.494 6.653 10.553 6.928 10.637 L 7.473 10.806 C 7.984 10.963 8.602 11.154 9.165 11.323 L 9.412 11.398 C 10.126 11.611 10.737 11.795 10.83 11.896 C 10.865 11.933 10.865 11.968 10.832 12.001 C 10.778 12.054 10.557 12.072 10.177 12.104 C 9.94 12.124 9.64 12.148 9.288 12.188 C 9.055 12.214 8.787 12.247 8.501 12.282 C 7.538 12.403 6.368 12.549 5.289 12.553 C 4.311 12.556 3.415 12.443 2.703 12.353 C 2.4 12.314 2.13 12.28 1.903 12.261 C 1.47 12.225 1.19 12.245 0.988 12.259 C 0.833 12.269 0.722 12.278 0.619 12.256 C 0.495 12.228 0.389 12.159 0.302 12.04 C 0.218 11.925 0.151 11.763 0.104 11.548 C 0.056 11.338 0.025 11.075 0.011 10.77 L 0.011 10.769 C -0.005 10.459 -0.003 10.104 0.013 9.715 C 0.03 9.321 0.062 8.893 0.112 8.439 C 0.159 8.002 0.222 7.54 0.3 7.062 C 0.383 6.559 0.483 6.039 0.594 5.54 C 0.699 5.071 0.816 4.621 0.936 4.224 C 1.061 3.814 1.192 3.459 1.336 3.155 C 1.481 2.849 1.638 2.597 1.815 2.391 C 1.988 2.191 2.18 2.035 2.386 1.921 C 2.603 1.8 2.836 1.725 3.079 1.689 C 3.345 1.651 3.623 1.659 3.907 1.667 C 4.125 1.673 4.348 1.68 4.572 1.665 C 4.842 1.647 5.113 1.599 5.356 1.514 C 5.572 1.439 5.764 1.336 5.913 1.201 C 6.229 0.915 6.352 0.475 6.476 0.036 L 6.477 0.035 Z M 3.304 8.843 C 3.263 8.857 3.216 8.883 3.165 8.921 L 3.235 8.91 C 3.31 8.901 3.371 8.892 3.407 8.877 C 3.428 8.868 3.438 8.86 3.439 8.853 L 3.439 8.85 C 3.437 8.848 3.434 8.845 3.429 8.842 C 3.407 8.826 3.364 8.822 3.304 8.842 L 3.304 8.843 Z M 2.199 8.719 C 2.153 8.78 2.104 8.85 2.056 8.925 C 2.221 8.815 2.387 8.722 2.529 8.642 C 2.678 8.56 2.799 8.491 2.859 8.438 C 2.882 8.417 2.895 8.401 2.899 8.388 C 2.899 8.384 2.899 8.381 2.899 8.38 C 2.895 8.374 2.887 8.369 2.877 8.363 C 2.844 8.347 2.793 8.34 2.738 8.344 C 2.665 8.349 2.585 8.371 2.498 8.426 C 2.407 8.484 2.308 8.575 2.199 8.719 L 2.199 8.719 Z M 1.971 8.485 C 1.879 8.576 1.768 8.691 1.66 8.808 L 1.689 8.783 C 1.794 8.691 1.893 8.582 1.971 8.485 Z M 10.264 9.293 C 10.765 9.282 11.267 9.25 11.725 9.206 C 12.02 9.178 12.296 9.144 12.545 9.107 C 12.538 9.096 12.535 9.083 12.535 9.067 C 12.535 9.053 12.538 9.035 12.544 9.017 C 12.565 8.949 12.631 8.84 12.736 8.769 C 12.778 8.741 12.826 8.72 12.878 8.702 C 12.943 8.639 13.016 8.578 13.099 8.525 C 13.262 8.422 13.456 8.359 13.63 8.303 C 13.756 8.262 13.871 8.224 13.951 8.179 C 14.016 8.142 14.058 8.1 14.081 8.06 C 14.095 8.038 14.101 8.017 14.103 7.997 C 14.105 7.98 14.102 7.965 14.095 7.953 L 14.094 7.951 C 14.089 7.942 14.081 7.934 14.072 7.928 L 14.07 7.926 C 14.013 7.893 13.888 7.909 13.724 7.928 C 13.664 7.935 13.599 7.944 13.532 7.949 L 13.416 7.959 C 13.178 7.977 12.905 7.997 12.664 8.142 C 12.465 8.262 12.281 8.47 12.182 8.582 C 12.131 8.638 12.099 8.674 12.071 8.674 C 12.063 8.674 12.055 8.672 12.048 8.668 L 12.041 8.664 C 12.032 8.657 12.026 8.647 12.024 8.635 C 12.023 8.631 12.022 8.627 12.022 8.623 C 12.023 8.609 12.027 8.593 12.035 8.577 C 12.043 8.56 12.055 8.536 12.071 8.509 C 12.143 8.39 12.296 8.179 12.465 8.045 C 12.59 7.946 12.724 7.889 12.86 7.854 C 12.992 7.819 13.126 7.805 13.255 7.793 L 13.292 7.79 C 13.522 7.767 13.729 7.748 13.775 7.7 L 13.777 7.698 C 13.778 7.697 13.776 7.693 13.773 7.689 C 13.763 7.676 13.746 7.661 13.72 7.646 C 13.664 7.614 13.575 7.584 13.453 7.564 C 13.431 7.56 13.406 7.557 13.382 7.554 C 13.334 7.568 13.267 7.577 13.186 7.588 C 13.028 7.61 12.814 7.64 12.609 7.722 C 12.429 7.794 12.251 7.908 12.121 7.992 C 12.01 8.064 11.929 8.116 11.884 8.109 C 11.871 8.107 11.861 8.102 11.852 8.093 L 11.847 8.087 C 11.83 8.066 11.828 8.036 11.842 8.001 L 11.844 7.998 C 11.852 7.977 11.868 7.949 11.89 7.919 C 11.965 7.816 12.122 7.67 12.334 7.577 C 12.49 7.509 12.676 7.47 12.861 7.452 C 13.035 7.435 13.209 7.437 13.355 7.452 C 13.304 7.429 13.211 7.41 13.078 7.404 C 12.907 7.396 12.675 7.41 12.436 7.468 C 12.252 7.513 12.063 7.583 11.898 7.689 C 11.578 7.892 11.336 8.23 11.124 8.527 C 11.083 8.584 11.043 8.641 11.004 8.693 C 10.879 8.862 10.761 9.004 10.61 9.115 C 10.512 9.188 10.4 9.247 10.264 9.291 L 10.264 9.293 Z M 12.666 9.088 C 12.856 9.057 13.028 9.024 13.174 8.991 C 13.575 8.899 13.779 8.8 13.868 8.722 C 13.888 8.703 13.902 8.688 13.908 8.674 C 13.911 8.668 13.913 8.663 13.913 8.661 C 13.889 8.635 13.758 8.656 13.598 8.683 C 13.545 8.692 13.49 8.701 13.435 8.708 C 13.383 8.716 13.336 8.721 13.29 8.727 L 13.289 8.727 C 13.16 8.741 13.032 8.757 12.926 8.789 C 12.846 8.869 12.779 8.95 12.729 9.011 C 12.705 9.042 12.684 9.068 12.665 9.088 L 12.666 9.088 Z M 12.808 7.557 C 12.653 7.577 12.5 7.612 12.371 7.669 C 12.18 7.753 12.039 7.882 11.97 7.975 L 12.071 7.909 C 12.206 7.823 12.385 7.707 12.575 7.632 C 12.653 7.6 12.732 7.577 12.808 7.557 Z" fill="#231F20" fill-rule="nonzero"></path>
</svg>