<svg xmlns="http://www.w3.org/2000/svg" width="82.676" height="74.699" viewBox="0 0 82.676 74.699" fill="#7F776C">
  <path d="M 27.847 72.797 C 26.984 72.601 26.143 72.363 25.326 72.091 C 21.983 70.973 20.188 69.421 19.505 67.69 C 18.86 66.071 19.184 64.29 20.136 62.547 C 21.542 59.956 24.331 57.436 27.333 55.642 C 29.081 54.601 30.909 53.947 32.797 53.57 C 30.623 52.91 28.884 51.693 27.941 49.514 C 27.377 48.22 28.245 47.318 29.67 46.691 C 31.7 45.802 34.882 45.48 36.342 45.319 C 39.585 44.957 43.108 44.684 46.158 43.972 C 47.338 43.696 48.443 43.355 49.438 42.917 C 42.625 43.988 35.834 45.643 29.025 45.657 C 24.899 45.666 19.616 44.482 17.639 41.288 C 16.903 40.109 16.711 39.057 16.907 38.121 C 17.194 36.722 18.351 35.585 19.893 34.686 C 21.576 33.708 23.721 33.015 25.66 32.567 C 27.762 32.087 30.661 31.907 33.823 31.748 C 32.797 31.463 32.058 30.945 31.461 30.301 C 30.742 29.529 30.234 28.571 29.688 27.625 C 27.633 24.077 25.139 18.43 26.821 14.493 C 27.227 13.548 28.33 13.067 29.68 12.838 C 29.918 12.798 30.167 12.765 30.418 12.738 C 29.529 12.354 28.786 11.786 28.27 10.981 C 26.997 9.011 27.787 7.337 29.452 5.924 C 31.874 3.864 36.189 2.372 38.453 1.327 C 39.533 0.826 40.9 0.25 42.208 0.063 C 43.574 -0.132 44.881 0.09 45.778 1.218 C 47.91 3.9 47.128 6.829 44.898 9.097 C 42.685 11.352 39.038 12.951 35.442 13 C 34.634 13.01 33.485 12.948 32.289 12.958 C 32.614 13.018 32.95 13.06 33.302 13.09 C 36.377 13.362 40.054 12.609 42.506 12.235 C 45.347 11.797 47.67 12.072 49.507 12.888 C 52.254 14.109 53.919 16.549 54.564 19.69 C 54.889 21.285 55.153 22.953 54.893 24.565 C 54.303 28.206 50.776 29.977 46.218 30.899 C 46 30.945 45.783 30.985 45.561 31.024 C 46.005 31.002 46.444 30.982 46.876 30.972 C 49.395 30.922 51.609 31.234 52.992 32.411 C 53.919 33.197 54.479 34.374 54.496 36.108 C 54.518 38.088 53.95 39.618 52.963 40.805 C 52.476 41.395 51.887 41.899 51.211 42.34 C 52.617 42.141 54.027 41.978 55.431 41.869 C 57.888 41.68 61.087 41.763 63.787 42.493 C 66.524 43.232 68.755 44.635 69.232 47.065 C 69.553 48.704 68.635 50.111 67.144 51.251 C 64.952 52.929 61.51 54.026 59.08 54.445 C 57.849 54.658 56.598 54.757 55.329 54.783 C 56.76 55.261 57.861 55.907 58.618 56.78 C 59.613 57.937 60.002 59.492 59.698 61.584 C 59.476 63.103 59.097 64.626 58.499 66.085 C 58.058 67.159 57.516 68.277 56.837 69.325 C 65.473 69.043 74.038 71.557 82.508 72.519 C 82.615 72.532 82.691 72.608 82.674 72.694 C 82.658 72.778 82.56 72.837 82.448 72.824 C 73.931 71.859 65.315 69.308 56.627 69.644 C 56.188 70.287 55.692 70.901 55.137 71.458 C 53.783 72.811 51.669 73.586 49.298 74.005 C 45.795 74.625 41.742 74.469 38.871 74.293 C 31.554 73.852 24.366 72.486 17.1 71.72 C 13.486 71.341 9.544 70.555 5.964 71.447 C 3.496 72.061 2.154 73.222 0.344 74.651 C 0.266 74.714 0.137 74.714 0.062 74.654 C -0.02 74.595 -0.02 74.496 0.056 74.436 C 1.924 72.966 3.303 71.782 5.841 71.152 C 9.48 70.247 13.482 71.027 17.15 71.414 C 20.726 71.789 24.285 72.314 27.847 72.797 Z M 56.162 69.663 C 56.034 69.67 55.901 69.677 55.773 69.683 C 49.785 70.048 43.711 72.107 37.783 73.01 C 35.932 73.288 34.109 73.435 32.268 73.367 C 34.472 73.633 36.68 73.852 38.901 73.984 C 41.737 74.157 45.744 74.316 49.208 73.703 C 51.485 73.301 53.523 72.565 54.821 71.269 C 55.316 70.771 55.76 70.23 56.162 69.663 Z M 54.232 54.783 C 51.429 54.746 48.559 54.385 45.693 54.044 C 43.019 54.13 40.161 54.348 37.513 54.249 C 36.095 54.197 34.733 54.053 33.493 53.755 C 31.443 54.107 29.462 54.763 27.578 55.888 C 24.625 57.648 21.884 60.122 20.504 62.666 C 19.59 64.341 19.269 66.049 19.885 67.598 C 20.542 69.259 22.276 70.735 25.485 71.809 C 26.98 72.306 28.581 72.694 30.192 72.893 C 32.728 73.212 35.193 73.086 37.705 72.704 C 43.647 71.802 49.737 69.74 55.744 69.374 C 55.957 69.362 56.166 69.352 56.38 69.341 C 57.098 68.264 57.661 67.107 58.118 65.992 C 58.707 64.553 59.084 63.048 59.302 61.548 C 59.592 59.549 59.242 58.06 58.284 56.952 C 57.413 55.94 56.042 55.254 54.232 54.783 Z M 50.519 42.752 C 49.289 43.418 47.841 43.898 46.274 44.267 C 43.203 44.986 39.662 45.262 36.398 45.624 C 34.967 45.783 31.849 46.091 29.867 46.963 C 28.62 47.51 27.826 48.283 28.316 49.414 C 29.299 51.679 31.179 52.853 33.52 53.437 C 36.56 52.935 39.747 53.095 42.967 53.423 C 43.886 53.516 44.804 53.625 45.727 53.736 C 47.303 53.685 48.82 53.682 50.191 53.811 C 51.732 53.96 53.104 54.176 54.291 54.478 C 55.885 54.495 57.456 54.405 58.989 54.143 C 61.365 53.736 64.722 52.667 66.862 51.033 C 68.263 49.961 69.139 48.647 68.836 47.112 C 68.386 44.804 66.256 43.484 63.654 42.785 C 61.01 42.068 57.879 41.992 55.47 42.177 C 53.817 42.307 52.169 42.509 50.519 42.752 Z M 35.227 31.98 C 31.571 32.163 28.154 32.319 25.771 32.865 C 23.878 33.3 21.782 33.977 20.132 34.935 C 18.676 35.78 17.573 36.848 17.301 38.172 C 17.117 39.051 17.305 40.042 17.996 41.156 C 19.906 44.244 25.036 45.358 29.021 45.348 C 36.137 45.332 43.237 43.521 50.357 42.463 C 51.25 41.969 52.022 41.369 52.629 40.639 C 53.577 39.492 54.116 38.019 54.099 36.113 C 54.081 34.477 53.569 33.359 52.698 32.62 C 51.387 31.503 49.276 31.234 46.888 31.28 C 43.036 31.356 38.478 32.259 35.227 31.98 Z M 31.106 12.994 C 30.644 13.024 30.192 13.07 29.765 13.139 C 28.564 13.343 27.561 13.75 27.202 14.589 C 25.545 18.463 28.03 24.011 30.051 27.5 C 30.584 28.425 31.08 29.363 31.785 30.123 C 32.464 30.855 33.348 31.416 34.681 31.605 C 34.874 31.635 35.075 31.659 35.283 31.675 C 38.926 31.493 42.797 31.274 46.119 30.601 C 50.506 29.712 53.928 28.031 54.496 24.529 C 54.753 22.943 54.492 21.305 54.168 19.739 C 53.548 16.701 51.963 14.334 49.31 13.157 C 47.547 12.374 45.312 12.118 42.583 12.536 C 40.101 12.918 36.369 13.674 33.254 13.398 C 32.494 13.332 31.768 13.203 31.106 12.994 Z M 31.179 12.683 C 32.742 12.599 34.382 12.705 35.432 12.689 C 38.914 12.642 42.438 11.09 44.582 8.908 C 46.714 6.743 47.473 3.944 45.436 1.38 C 44.646 0.385 43.489 0.196 42.28 0.368 C 41.016 0.548 39.701 1.112 38.658 1.592 C 36.415 2.627 32.143 4.096 29.744 6.132 C 28.193 7.449 27.441 9.004 28.624 10.842 C 29.209 11.75 30.107 12.331 31.179 12.683 Z M 48.076 54.014 C 49.542 54.183 50.998 54.332 52.445 54.412 C 51.728 54.296 50.956 54.2 50.139 54.12 C 49.482 54.056 48.789 54.023 48.076 54.014 Z M 43.719 53.818 C 43.45 53.788 43.181 53.758 42.913 53.731 C 40.016 53.433 37.149 53.275 34.391 53.625 C 35.382 53.805 36.441 53.901 37.534 53.941 C 39.529 54.014 41.648 53.908 43.719 53.818 Z" fill="#231F20" fill-rule="evenodd"></path>
</svg>